<svg width="244" height="89" viewBox="0 0 244 89" fill="none" xmlns="http://www.w3.org/2000/svg">
<path d="M1.776 22V4.72H4.32V22H1.776ZM3.024 22V19.912H13.776V22H3.024ZM3.024 14.104V12.016H12.912V14.104H3.024ZM3.024 6.808V4.72H13.56V6.808H3.024ZM20.8969 22.216C18.8169 22.216 17.1529 21.72 15.9049 20.728C14.6569 19.736 13.9289 18.32 13.7209 16.48H16.1929C16.3369 17.68 16.8169 18.592 17.6329 19.216C18.4489 19.84 19.5529 20.152 20.9449 20.152C22.1129 20.152 22.9929 19.936 23.5849 19.504C24.1929 19.072 24.4969 18.456 24.4969 17.656C24.4969 16.936 24.2969 16.368 23.8969 15.952C23.4969 15.52 22.8649 15.168 22.0009 14.896L19.0009 13.936C17.4649 13.44 16.3369 12.816 15.6169 12.064C14.8969 11.312 14.5369 10.36 14.5369 9.208C14.5369 8.232 14.7769 7.392 15.2569 6.688C15.7529 5.984 16.4409 5.44 17.3209 5.056C18.2169 4.656 19.2569 4.456 20.4409 4.456C22.2649 4.456 23.7209 4.92 24.8089 5.848C25.9129 6.76 26.5449 8.032 26.7049 9.664H24.2329C24.0409 8.576 23.6249 7.784 22.9849 7.288C22.3449 6.776 21.4649 6.52 20.3449 6.52C19.2889 6.52 18.4649 6.728 17.8729 7.144C17.2809 7.56 16.9849 8.144 16.9849 8.896C16.9849 9.504 17.1769 10.016 17.5609 10.432C17.9609 10.832 18.6169 11.176 19.5289 11.464L22.6729 12.472C24.1289 12.936 25.2009 13.568 25.8889 14.368C26.5929 15.168 26.9449 16.176 26.9449 17.392C26.9449 18.928 26.4169 20.12 25.3609 20.968C24.3049 21.8 22.8169 22.216 20.8969 22.216ZM32.4309 22V6.808H26.5989V4.72H40.8069V6.808H34.9749V22H32.4309ZM44.2753 22V19.912C45.9553 18.536 47.3553 17.336 48.4753 16.312C49.6113 15.288 50.5153 14.376 51.1873 13.576C51.8593 12.776 52.3393 12.048 52.6273 11.392C52.9153 10.736 53.0593 10.08 53.0593 9.424C53.0593 8.528 52.7953 7.832 52.2673 7.336C51.7553 6.824 51.0433 6.568 50.1313 6.568C49.1873 6.568 48.4193 6.848 47.8273 7.408C47.2353 7.952 46.8673 8.728 46.7233 9.736H44.1313C44.2913 8.152 44.9073 6.88 45.9793 5.92C47.0673 4.96 48.4993 4.48 50.2753 4.48C51.9713 4.48 53.3073 4.928 54.2833 5.824C55.2753 6.72 55.7713 7.952 55.7713 9.52C55.7713 10.32 55.6193 11.12 55.3153 11.92C55.0273 12.704 54.5473 13.528 53.8753 14.392C53.2033 15.24 52.2993 16.184 51.1633 17.224C50.0433 18.248 48.6513 19.416 46.9873 20.728L46.3873 19.912H56.0833V22H44.2753ZM60.4192 22V7.096L60.8752 7.288C60.6672 7.736 60.3072 8.176 59.7952 8.608C59.2832 9.04 58.6912 9.416 58.0192 9.736C57.3472 10.04 56.6352 10.256 55.8832 10.384V7.936C56.5872 7.824 57.2752 7.616 57.9472 7.312C58.6192 6.992 59.2192 6.608 59.7472 6.16C60.2752 5.696 60.6672 5.216 60.9232 4.72H62.8912V22H60.4192ZM63.939 22V19.024H66.891V22H63.939ZM69.6564 22V7.096L70.1124 7.288C69.9044 7.736 69.5444 8.176 69.0324 8.608C68.5204 9.04 67.9284 9.416 67.2564 9.736C66.5844 10.04 65.8724 10.256 65.1204 10.384V7.936C65.8244 7.824 66.5124 7.616 67.1844 7.312C67.8564 6.992 68.4564 6.608 68.9844 6.16C69.5124 5.696 69.9044 5.216 70.1604 4.72H72.1284V22H69.6564ZM73.32 22V19.912C75 18.536 76.4 17.336 77.52 16.312C78.656 15.288 79.56 14.376 80.232 13.576C80.904 12.776 81.384 12.048 81.672 11.392C81.96 10.736 82.104 10.08 82.104 9.424C82.104 8.528 81.84 7.832 81.312 7.336C80.8 6.824 80.088 6.568 79.176 6.568C78.232 6.568 77.464 6.848 76.872 7.408C76.28 7.952 75.912 8.728 75.768 9.736H73.176C73.336 8.152 73.952 6.88 75.024 5.92C76.112 4.96 77.544 4.48 79.32 4.48C81.016 4.48 82.352 4.928 83.328 5.824C84.32 6.72 84.816 7.952 84.816 9.52C84.816 10.32 84.664 11.12 84.36 11.92C84.072 12.704 83.592 13.528 82.92 14.392C82.248 15.24 81.344 16.184 80.208 17.224C79.088 18.248 77.696 19.416 76.032 20.728L75.432 19.912H85.128V22H73.32ZM85.6581 22V19.024H88.6101V22H85.6581ZM89.2603 22V19.912C90.9403 18.536 92.3403 17.336 93.4603 16.312C94.5963 15.288 95.5003 14.376 96.1723 13.576C96.8443 12.776 97.3243 12.048 97.6123 11.392C97.9003 10.736 98.0443 10.08 98.0443 9.424C98.0443 8.528 97.7803 7.832 97.2523 7.336C96.7403 6.824 96.0283 6.568 95.1163 6.568C94.1723 6.568 93.4043 6.848 92.8123 7.408C92.2203 7.952 91.8523 8.728 91.7083 9.736H89.1163C89.2763 8.152 89.8923 6.88 90.9643 5.92C92.0523 4.96 93.4843 4.48 95.2603 4.48C96.9563 4.48 98.2923 4.928 99.2683 5.824C100.26 6.72 100.756 7.952 100.756 9.52C100.756 10.32 100.604 11.12 100.3 11.92C100.012 12.704 99.5323 13.528 98.8603 14.392C98.1883 15.24 97.2843 16.184 96.1483 17.224C95.0283 18.248 93.6363 19.416 91.9723 20.728L91.3723 19.912H101.068V22H89.2603ZM108.901 22V17.44L108.997 16.96V7.096L109.909 7.36L102.709 17.104L101.725 16.168H113.581V18.256H100.381V16.312L108.997 4.72H111.517V22H108.901Z" fill="#F1F1F1"/>
<path opacity="0.8" d="M0.512 49L4.848 37.48H6.32L2.176 49H0.512ZM9.424 49L5.28 37.48H6.832L11.184 49H9.424ZM2.704 44.408H8.88V45.816H2.704V44.408ZM19.0994 49.144C18.3314 49.144 17.6914 48.9627 17.1794 48.6C16.678 48.2267 16.3474 47.7093 16.1874 47.048L16.4114 47.016V52.28H14.7474V40.84H16.3314V42.712L16.1714 42.664C16.342 42.0453 16.7047 41.56 17.2594 41.208C17.814 40.856 18.4647 40.68 19.2114 40.68C19.9474 40.68 20.582 40.856 21.1154 41.208C21.6594 41.56 22.0754 42.0507 22.3634 42.68C22.662 43.3093 22.8114 44.0453 22.8114 44.888C22.8114 45.7413 22.6567 46.488 22.3474 47.128C22.038 47.768 21.606 48.264 21.0514 48.616C20.4967 48.968 19.846 49.144 19.0994 49.144ZM18.7474 47.768C19.4727 47.768 20.0487 47.512 20.4754 47C20.902 46.488 21.1154 45.784 21.1154 44.888C21.1154 44.0027 20.902 43.3147 20.4754 42.824C20.0487 42.3227 19.4674 42.072 18.7314 42.072C18.006 42.072 17.4247 42.328 16.9874 42.84C16.5607 43.3413 16.3474 44.04 16.3474 44.936C16.3474 45.8107 16.5607 46.504 16.9874 47.016C17.4247 47.5173 18.0114 47.768 18.7474 47.768ZM23.9199 49V37.48H25.5839V49H23.9199ZM32.3359 49C32.2825 48.7973 32.2452 48.5733 32.2239 48.328C32.2132 48.0827 32.2079 47.784 32.2079 47.432H32.1279V43.544C32.1279 43.0213 31.9945 42.632 31.7279 42.376C31.4719 42.1093 31.0612 41.976 30.4959 41.976C29.9519 41.976 29.5145 42.0827 29.1839 42.296C28.8639 42.5093 28.6772 42.8133 28.6239 43.208H27.0399C27.1145 42.44 27.4612 41.8267 28.0799 41.368C28.6985 40.9093 29.5252 40.68 30.5599 40.68C31.6265 40.68 32.4265 40.9307 32.9599 41.432C33.4932 41.9227 33.7599 42.648 33.7599 43.608V47.432C33.7599 47.6773 33.7759 47.928 33.8079 48.184C33.8399 48.44 33.8879 48.712 33.9519 49H32.3359ZM29.5199 49.16C28.6879 49.16 28.0265 48.9573 27.5359 48.552C27.0452 48.136 26.7999 47.576 26.7999 46.872C26.7999 46.1467 27.0559 45.576 27.5679 45.16C28.0905 44.7333 28.8372 44.4453 29.8079 44.296L32.4959 43.864V45.032L30.0639 45.416C29.5199 45.5013 29.1092 45.6453 28.8319 45.848C28.5652 46.0507 28.4319 46.344 28.4319 46.728C28.4319 47.1013 28.5545 47.384 28.7999 47.576C29.0559 47.7573 29.4239 47.848 29.9039 47.848C30.5439 47.848 31.0719 47.6933 31.4879 47.384C31.9145 47.0747 32.1279 46.6853 32.1279 46.216L32.3359 47.4C32.1439 47.9653 31.8025 48.4027 31.3119 48.712C30.8212 49.0107 30.2239 49.16 29.5199 49.16ZM38.7037 49.16C37.9251 49.16 37.2317 48.9787 36.6237 48.616C36.0157 48.2427 35.5357 47.736 35.1837 47.096C34.8424 46.456 34.6717 45.7253 34.6717 44.904C34.6717 44.0827 34.8424 43.3573 35.1837 42.728C35.5357 42.088 36.0157 41.5867 36.6237 41.224C37.2317 40.8613 37.9197 40.68 38.6877 40.68C39.3384 40.68 39.9197 40.8027 40.4317 41.048C40.9437 41.2933 41.3651 41.6347 41.6957 42.072C42.0264 42.5093 42.2397 43.0267 42.3357 43.624H40.7677C40.6611 43.144 40.4264 42.76 40.0637 42.472C39.7117 42.184 39.2637 42.04 38.7197 42.04C38.2504 42.04 37.8397 42.1573 37.4877 42.392C37.1357 42.6267 36.8637 42.9573 36.6717 43.384C36.4797 43.8107 36.3837 44.3173 36.3837 44.904C36.3837 45.48 36.4797 45.9867 36.6717 46.424C36.8637 46.8613 37.1357 47.2027 37.4877 47.448C37.8397 47.6827 38.2557 47.8 38.7357 47.8C39.2584 47.8 39.7011 47.6613 40.0637 47.384C40.4371 47.096 40.6771 46.712 40.7837 46.232H42.3517C42.2451 46.8187 42.0211 47.3307 41.6797 47.768C41.3491 48.2053 40.9277 48.5467 40.4157 48.792C39.9037 49.0373 39.3331 49.16 38.7037 49.16ZM46.848 49.16C46.0267 49.16 45.3013 48.9787 44.672 48.616C44.0533 48.2533 43.568 47.752 43.216 47.112C42.864 46.472 42.688 45.736 42.688 44.904C42.688 44.0613 42.8587 43.3253 43.2 42.696C43.552 42.056 44.0427 41.56 44.672 41.208C45.3013 40.856 46.0213 40.68 46.832 40.68C47.6213 40.68 48.304 40.8507 48.88 41.192C49.4667 41.5227 49.9147 41.9867 50.224 42.584C50.544 43.1813 50.704 43.8907 50.704 44.712C50.704 44.84 50.6987 44.9627 50.688 45.08C50.688 45.1867 50.6773 45.2987 50.656 45.416H43.808V44.168H49.488L49.072 44.664C49.072 43.7893 48.8747 43.1227 48.48 42.664C48.0853 42.2053 47.536 41.976 46.832 41.976C46.0747 41.976 45.472 42.2373 45.024 42.76C44.5867 43.272 44.368 43.9867 44.368 44.904C44.368 45.832 44.5867 46.5573 45.024 47.08C45.472 47.6027 46.0907 47.864 46.88 47.864C47.36 47.864 47.776 47.768 48.128 47.576C48.48 47.3733 48.7413 47.08 48.912 46.696H50.48C50.2133 47.464 49.76 48.0667 49.12 48.504C48.4907 48.9413 47.7333 49.16 46.848 49.16ZM55.9624 49L53.4664 40.84H55.1784L56.8744 47.4H56.6344L58.6984 40.84H60.1384L62.2024 47.4H61.9784L63.6584 40.84H65.2904L62.7944 49H61.3384L59.2744 42.552H59.5144L57.4184 49H55.9624ZM66.1736 49V37.48H67.8376V49H66.1736ZM71.9656 49V43.752C71.9656 43.1867 71.8216 42.7653 71.5336 42.488C71.2563 42.2107 70.8403 42.072 70.2856 42.072C69.8056 42.072 69.379 42.1787 69.0056 42.392C68.643 42.6053 68.355 42.8987 68.1416 43.272C67.939 43.6453 67.8376 44.088 67.8376 44.6L67.6296 42.648C67.8963 42.04 68.307 41.56 68.8616 41.208C69.4163 40.856 70.0616 40.68 70.7976 40.68C71.6723 40.68 72.3603 40.9253 72.8616 41.416C73.363 41.9067 73.6136 42.5573 73.6136 43.368V49H71.9656ZM78.7567 49.16C77.9354 49.16 77.2101 48.9787 76.5807 48.616C75.9621 48.2533 75.4767 47.752 75.1247 47.112C74.7727 46.472 74.5967 45.736 74.5967 44.904C74.5967 44.0613 74.7674 43.3253 75.1087 42.696C75.4607 42.056 75.9514 41.56 76.5807 41.208C77.2101 40.856 77.9301 40.68 78.7407 40.68C79.5301 40.68 80.2127 40.8507 80.7887 41.192C81.3754 41.5227 81.8234 41.9867 82.1327 42.584C82.4527 43.1813 82.6127 43.8907 82.6127 44.712C82.6127 44.84 82.6074 44.9627 82.5967 45.08C82.5967 45.1867 82.5861 45.2987 82.5647 45.416H75.7167V44.168H81.3967L80.9807 44.664C80.9807 43.7893 80.7834 43.1227 80.3887 42.664C79.9941 42.2053 79.4447 41.976 78.7407 41.976C77.9834 41.976 77.3807 42.2373 76.9327 42.76C76.4954 43.272 76.2767 43.9867 76.2767 44.904C76.2767 45.832 76.4954 46.5573 76.9327 47.08C77.3807 47.6027 77.9994 47.864 78.7887 47.864C79.2687 47.864 79.6847 47.768 80.0367 47.576C80.3887 47.3733 80.6501 47.08 80.8207 46.696H82.3887C82.1221 47.464 81.6687 48.0667 81.0287 48.504C80.3994 48.9413 79.6421 49.16 78.7567 49.16ZM83.6749 49V40.84H85.2589V42.872H85.3389V49H83.6749ZM85.3389 44.744L85.1309 42.808C85.3229 42.1147 85.6535 41.5867 86.1229 41.224C86.5922 40.8613 87.1522 40.68 87.8029 40.68C88.0482 40.68 88.2189 40.7013 88.3149 40.744V42.312C88.2615 42.2907 88.1869 42.28 88.0909 42.28C87.9949 42.2693 87.8775 42.264 87.7389 42.264C86.9389 42.264 86.3362 42.472 85.9309 42.888C85.5362 43.304 85.3389 43.9227 85.3389 44.744ZM92.4455 49.16C91.6242 49.16 90.8988 48.9787 90.2695 48.616C89.6508 48.2533 89.1655 47.752 88.8135 47.112C88.4615 46.472 88.2855 45.736 88.2855 44.904C88.2855 44.0613 88.4562 43.3253 88.7975 42.696C89.1495 42.056 89.6402 41.56 90.2695 41.208C90.8988 40.856 91.6188 40.68 92.4295 40.68C93.2188 40.68 93.9015 40.8507 94.4775 41.192C95.0642 41.5227 95.5122 41.9867 95.8215 42.584C96.1415 43.1813 96.3015 43.8907 96.3015 44.712C96.3015 44.84 96.2962 44.9627 96.2855 45.08C96.2855 45.1867 96.2748 45.2987 96.2535 45.416H89.4055V44.168H95.0855L94.6695 44.664C94.6695 43.7893 94.4722 43.1227 94.0775 42.664C93.6828 42.2053 93.1335 41.976 92.4295 41.976C91.6722 41.976 91.0695 42.2373 90.6215 42.76C90.1842 43.272 89.9655 43.9867 89.9655 44.904C89.9655 45.832 90.1842 46.5573 90.6215 47.08C91.0695 47.6027 91.6882 47.864 92.4775 47.864C92.9575 47.864 93.3735 47.768 93.7255 47.576C94.0775 47.3733 94.3388 47.08 94.5095 46.696H96.0775C95.8108 47.464 95.3575 48.0667 94.7175 48.504C94.0882 48.9413 93.3308 49.16 92.4455 49.16ZM105.768 49V47.128L105.928 47.176C105.757 47.784 105.405 48.2693 104.872 48.632C104.339 48.984 103.699 49.16 102.952 49.16C102.216 49.16 101.571 48.984 101.016 48.632C100.472 48.28 100.045 47.7893 99.7359 47.16C99.4372 46.5307 99.2879 45.7947 99.2879 44.952C99.2879 44.0987 99.4425 43.352 99.7519 42.712C100.061 42.072 100.493 41.576 101.048 41.224C101.603 40.872 102.253 40.696 103 40.696C103.779 40.696 104.419 40.8827 104.92 41.256C105.432 41.6187 105.768 42.1307 105.928 42.792L105.704 42.824V37.48H107.352V49H105.768ZM103.368 47.768C104.104 47.768 104.685 47.5173 105.112 47.016C105.539 46.504 105.752 45.8 105.752 44.904C105.752 44.0293 105.533 43.3413 105.096 42.84C104.669 42.328 104.088 42.072 103.352 42.072C102.627 42.072 102.051 42.328 101.624 42.84C101.208 43.3413 101 44.0453 101 44.952C101 45.8373 101.208 46.5307 101.624 47.032C102.051 47.5227 102.632 47.768 103.368 47.768ZM112.572 49.16C111.751 49.16 111.026 48.9787 110.396 48.616C109.778 48.2533 109.292 47.752 108.94 47.112C108.588 46.472 108.412 45.736 108.412 44.904C108.412 44.0613 108.583 43.3253 108.924 42.696C109.276 42.056 109.767 41.56 110.396 41.208C111.026 40.856 111.746 40.68 112.556 40.68C113.346 40.68 114.028 40.8507 114.604 41.192C115.191 41.5227 115.639 41.9867 115.948 42.584C116.268 43.1813 116.428 43.8907 116.428 44.712C116.428 44.84 116.423 44.9627 116.412 45.08C116.412 45.1867 116.402 45.2987 116.38 45.416H109.532V44.168H115.212L114.796 44.664C114.796 43.7893 114.599 43.1227 114.204 42.664C113.81 42.2053 113.26 41.976 112.556 41.976C111.799 41.976 111.196 42.2373 110.748 42.76C110.311 43.272 110.092 43.9867 110.092 44.904C110.092 45.832 110.311 46.5573 110.748 47.08C111.196 47.6027 111.815 47.864 112.604 47.864C113.084 47.864 113.5 47.768 113.852 47.576C114.204 47.3733 114.466 47.08 114.636 46.696H116.204C115.938 47.464 115.484 48.0667 114.844 48.504C114.215 48.9413 113.458 49.16 112.572 49.16ZM120.466 49.16C119.399 49.16 118.551 48.9253 117.922 48.456C117.292 47.9867 116.935 47.3253 116.85 46.472H118.386C118.46 46.9413 118.674 47.304 119.026 47.56C119.388 47.8053 119.879 47.928 120.498 47.928C121.042 47.928 121.458 47.832 121.746 47.64C122.034 47.448 122.178 47.176 122.178 46.824C122.178 46.568 122.092 46.3547 121.922 46.184C121.762 46.0027 121.442 45.8533 120.962 45.736L119.65 45.432C118.828 45.2293 118.215 44.9307 117.81 44.536C117.415 44.1307 117.218 43.6347 117.218 43.048C117.218 42.312 117.49 41.736 118.034 41.32C118.588 40.8933 119.346 40.68 120.306 40.68C121.255 40.68 122.018 40.8933 122.594 41.32C123.18 41.7467 123.511 42.344 123.586 43.112H122.05C121.986 42.728 121.799 42.4347 121.49 42.232C121.191 42.0187 120.78 41.912 120.258 41.912C119.767 41.912 119.388 42.0027 119.122 42.184C118.866 42.3547 118.738 42.5947 118.738 42.904C118.738 43.16 118.834 43.3733 119.026 43.544C119.228 43.7147 119.559 43.8587 120.018 43.976L121.362 44.312C122.14 44.504 122.727 44.8187 123.122 45.256C123.516 45.6827 123.714 46.2 123.714 46.808C123.714 47.544 123.426 48.12 122.85 48.536C122.284 48.952 121.49 49.16 120.466 49.16ZM124.694 49V40.84H126.358V49H124.694ZM124.614 39.24V37.368H126.454V39.24H124.614ZM131.431 52.44C130.407 52.44 129.559 52.2053 128.887 51.736C128.226 51.2773 127.826 50.664 127.687 49.896H129.255C129.362 50.248 129.597 50.5253 129.959 50.728C130.333 50.9307 130.829 51.032 131.447 51.032C132.247 51.032 132.845 50.8347 133.239 50.44C133.634 50.0453 133.831 49.4587 133.831 48.68V46.92L133.975 46.952C133.815 47.5707 133.469 48.0613 132.935 48.424C132.402 48.776 131.762 48.952 131.015 48.952C130.301 48.952 129.671 48.7813 129.127 48.44C128.583 48.0987 128.162 47.624 127.863 47.016C127.565 46.3973 127.415 45.6773 127.415 44.856C127.415 44.024 127.57 43.2933 127.879 42.664C128.189 42.0347 128.621 41.5493 129.175 41.208C129.741 40.8667 130.397 40.696 131.143 40.696C131.911 40.696 132.546 40.8827 133.047 41.256C133.559 41.6187 133.885 42.136 134.023 42.808L133.895 42.824V40.84H135.479V48.664C135.479 49.8373 135.117 50.76 134.391 51.432C133.677 52.104 132.69 52.44 131.431 52.44ZM131.511 47.608C132.226 47.608 132.797 47.3573 133.223 46.856C133.661 46.3547 133.879 45.6667 133.879 44.792C133.879 43.9387 133.661 43.2667 133.223 42.776C132.797 42.2853 132.221 42.04 131.495 42.04C130.77 42.04 130.194 42.2907 129.767 42.792C129.341 43.2827 129.127 43.9653 129.127 44.84C129.127 45.6933 129.341 46.3707 129.767 46.872C130.205 47.3627 130.786 47.608 131.511 47.608ZM137.18 49V40.84H138.764V42.76H138.844V49H137.18ZM142.972 49V43.752C142.972 43.1867 142.828 42.7653 142.54 42.488C142.263 42.2107 141.847 42.072 141.292 42.072C140.812 42.072 140.385 42.1787 140.012 42.392C139.649 42.6053 139.361 42.8987 139.148 43.272C138.945 43.6453 138.844 44.088 138.844 44.6L138.636 42.648C138.903 42.04 139.313 41.56 139.868 41.208C140.423 40.856 141.068 40.68 141.804 40.68C142.679 40.68 143.367 40.9253 143.868 41.416C144.369 41.9067 144.62 42.5573 144.62 43.368V49H142.972ZM153.111 49.144C152.343 49.144 151.703 48.9627 151.191 48.6C150.69 48.2267 150.359 47.7093 150.199 47.048L150.423 47.016V52.28H148.759V40.84H150.343V42.712L150.183 42.664C150.354 42.0453 150.717 41.56 151.271 41.208C151.826 40.856 152.477 40.68 153.223 40.68C153.959 40.68 154.594 40.856 155.127 41.208C155.671 41.56 156.087 42.0507 156.375 42.68C156.674 43.3093 156.823 44.0453 156.823 44.888C156.823 45.7413 156.669 46.488 156.359 47.128C156.05 47.768 155.618 48.264 155.063 48.616C154.509 48.968 153.858 49.144 153.111 49.144ZM152.759 47.768C153.485 47.768 154.061 47.512 154.487 47C154.914 46.488 155.127 45.784 155.127 44.888C155.127 44.0027 154.914 43.3147 154.487 42.824C154.061 42.3227 153.479 42.072 152.743 42.072C152.018 42.072 151.437 42.328 150.999 42.84C150.573 43.3413 150.359 44.04 150.359 44.936C150.359 45.8107 150.573 46.504 150.999 47.016C151.437 47.5173 152.023 47.768 152.759 47.768ZM157.932 49V37.48H159.596V49H157.932ZM163.724 49V43.752C163.724 43.1867 163.58 42.7653 163.292 42.488C163.014 42.2107 162.598 42.072 162.044 42.072C161.564 42.072 161.137 42.1787 160.764 42.392C160.401 42.6053 160.113 42.8987 159.9 43.272C159.697 43.6453 159.596 44.088 159.596 44.6L159.388 42.648C159.654 42.04 160.065 41.56 160.62 41.208C161.174 40.856 161.82 40.68 162.556 40.68C163.43 40.68 164.118 40.9253 164.62 41.416C165.121 41.9067 165.372 42.5573 165.372 43.368V49H163.724ZM166.964 49V40.84H168.628V49H166.964ZM166.884 39.24V37.368H168.724V39.24H166.884ZM170.324 49V37.48H171.988V49H170.324ZM177.236 49.16C176.404 49.16 175.673 48.9787 175.044 48.616C174.414 48.2427 173.924 47.736 173.572 47.096C173.22 46.4453 173.044 45.7093 173.044 44.888C173.044 44.056 173.22 43.3253 173.572 42.696C173.934 42.0667 174.425 41.576 175.044 41.224C175.673 40.8613 176.404 40.68 177.236 40.68C178.078 40.68 178.814 40.8613 179.444 41.224C180.073 41.576 180.558 42.0667 180.9 42.696C181.252 43.3253 181.428 44.056 181.428 44.888C181.428 45.7093 181.252 46.4453 180.9 47.096C180.558 47.736 180.073 48.2427 179.444 48.616C178.814 48.9787 178.078 49.16 177.236 49.16ZM177.236 47.8C177.737 47.8 178.169 47.6773 178.532 47.432C178.905 47.1867 179.198 46.8453 179.412 46.408C179.625 45.9707 179.732 45.4587 179.732 44.872C179.732 43.9973 179.497 43.3093 179.028 42.808C178.569 42.296 177.972 42.04 177.236 42.04C176.51 42.04 175.913 42.296 175.444 42.808C174.985 43.32 174.756 44.008 174.756 44.872C174.756 45.4587 174.857 45.9707 175.06 46.408C175.273 46.8453 175.566 47.1867 175.94 47.432C176.324 47.6773 176.756 47.8 177.236 47.8ZM185.456 49.16C184.39 49.16 183.542 48.9253 182.912 48.456C182.283 47.9867 181.926 47.3253 181.84 46.472H183.376C183.451 46.9413 183.664 47.304 184.016 47.56C184.379 47.8053 184.87 47.928 185.488 47.928C186.032 47.928 186.448 47.832 186.736 47.64C187.024 47.448 187.168 47.176 187.168 46.824C187.168 46.568 187.083 46.3547 186.912 46.184C186.752 46.0027 186.432 45.8533 185.952 45.736L184.64 45.432C183.819 45.2293 183.206 44.9307 182.8 44.536C182.406 44.1307 182.208 43.6347 182.208 43.048C182.208 42.312 182.48 41.736 183.024 41.32C183.579 40.8933 184.336 40.68 185.296 40.68C186.246 40.68 187.008 40.8933 187.584 41.32C188.171 41.7467 188.502 42.344 188.576 43.112H187.04C186.976 42.728 186.79 42.4347 186.48 42.232C186.182 42.0187 185.771 41.912 185.248 41.912C184.758 41.912 184.379 42.0027 184.112 42.184C183.856 42.3547 183.728 42.5947 183.728 42.904C183.728 43.16 183.824 43.3733 184.016 43.544C184.219 43.7147 184.55 43.8587 185.008 43.976L186.352 44.312C187.131 44.504 187.718 44.8187 188.112 45.256C188.507 45.6827 188.704 46.2 188.704 46.808C188.704 47.544 188.416 48.12 187.84 48.536C187.275 48.952 186.48 49.16 185.456 49.16ZM193.44 49.16C192.608 49.16 191.877 48.9787 191.248 48.616C190.619 48.2427 190.128 47.736 189.776 47.096C189.424 46.4453 189.248 45.7093 189.248 44.888C189.248 44.056 189.424 43.3253 189.776 42.696C190.139 42.0667 190.629 41.576 191.248 41.224C191.877 40.8613 192.608 40.68 193.44 40.68C194.283 40.68 195.019 40.8613 195.648 41.224C196.277 41.576 196.763 42.0667 197.104 42.696C197.456 43.3253 197.632 44.056 197.632 44.888C197.632 45.7093 197.456 46.4453 197.104 47.096C196.763 47.736 196.277 48.2427 195.648 48.616C195.019 48.9787 194.283 49.16 193.44 49.16ZM193.44 47.8C193.941 47.8 194.373 47.6773 194.736 47.432C195.109 47.1867 195.403 46.8453 195.616 46.408C195.829 45.9707 195.936 45.4587 195.936 44.872C195.936 43.9973 195.701 43.3093 195.232 42.808C194.773 42.296 194.176 42.04 193.44 42.04C192.715 42.04 192.117 42.296 191.648 42.808C191.189 43.32 190.96 44.008 190.96 44.872C190.96 45.4587 191.061 45.9707 191.264 46.408C191.477 46.8453 191.771 47.1867 192.144 47.432C192.528 47.6773 192.96 47.8 193.44 47.8ZM203.053 49.144C202.285 49.144 201.645 48.9627 201.133 48.6C200.632 48.2267 200.301 47.7093 200.141 47.048L200.365 47.016V52.28H198.701V40.84H200.285V42.712L200.125 42.664C200.296 42.0453 200.658 41.56 201.213 41.208C201.768 40.856 202.418 40.68 203.165 40.68C203.901 40.68 204.536 40.856 205.069 41.208C205.613 41.56 206.029 42.0507 206.317 42.68C206.616 43.3093 206.765 44.0453 206.765 44.888C206.765 45.7413 206.61 46.488 206.301 47.128C205.992 47.768 205.56 48.264 205.005 48.616C204.45 48.968 203.8 49.144 203.053 49.144ZM202.701 47.768C203.426 47.768 204.002 47.512 204.429 47C204.856 46.488 205.069 45.784 205.069 44.888C205.069 44.0027 204.856 43.3147 204.429 42.824C204.002 42.3227 203.421 42.072 202.685 42.072C201.96 42.072 201.378 42.328 200.941 42.84C200.514 43.3413 200.301 44.04 200.301 44.936C200.301 45.8107 200.514 46.504 200.941 47.016C201.378 47.5173 201.965 47.768 202.701 47.768ZM207.874 49V37.48H209.538V49H207.874ZM213.666 49V43.752C213.666 43.1867 213.522 42.7653 213.234 42.488C212.956 42.2107 212.54 42.072 211.986 42.072C211.506 42.072 211.079 42.1787 210.706 42.392C210.343 42.6053 210.055 42.8987 209.842 43.272C209.639 43.6453 209.538 44.088 209.538 44.6L209.33 42.648C209.596 42.04 210.007 41.56 210.562 41.208C211.116 40.856 211.762 40.68 212.498 40.68C213.372 40.68 214.06 40.9253 214.562 41.416C215.063 41.9067 215.314 42.5573 215.314 43.368V49H213.666ZM217.201 52.28L219.169 47.784L219.505 47.256L221.985 40.84H223.713L218.913 52.28H217.201ZM219.089 49L215.601 40.84H217.409L220.369 48.184L219.089 49ZM5.52 67.144C4.752 67.144 4.112 66.9627 3.6 66.6C3.088 66.2267 2.752 65.7093 2.592 65.048L2.752 65.016V67H1.168V55.48H2.832V60.712L2.656 60.664C2.83733 60.0453 3.18933 59.56 3.712 59.208C4.24533 58.856 4.88533 58.68 5.632 58.68C6.368 58.68 7.00267 58.856 7.536 59.208C8.08 59.56 8.496 60.0507 8.784 60.68C9.08267 61.3093 9.232 62.0453 9.232 62.888C9.232 63.7413 9.07733 64.488 8.768 65.128C8.45867 65.768 8.02667 66.264 7.472 66.616C6.91733 66.968 6.26667 67.144 5.52 67.144ZM5.168 65.768C5.89333 65.768 6.46933 65.512 6.896 65C7.32267 64.488 7.536 63.784 7.536 62.888C7.536 62.0027 7.32267 61.3147 6.896 60.824C6.46933 60.3227 5.888 60.072 5.152 60.072C4.42667 60.072 3.84533 60.328 3.408 60.84C2.98133 61.3413 2.768 62.04 2.768 62.936C2.768 63.8107 2.98133 64.504 3.408 65.016C3.84533 65.5173 4.432 65.768 5.168 65.768ZM10.3405 67V55.48H12.0045V67H10.3405ZM17.2205 67.16C16.3992 67.16 15.6738 66.9787 15.0445 66.616C14.4258 66.2533 13.9405 65.752 13.5885 65.112C13.2365 64.472 13.0605 63.736 13.0605 62.904C13.0605 62.0613 13.2312 61.3253 13.5725 60.696C13.9245 60.056 14.4152 59.56 15.0445 59.208C15.6738 58.856 16.3938 58.68 17.2045 58.68C17.9938 58.68 18.6765 58.8507 19.2525 59.192C19.8392 59.5227 20.2872 59.9867 20.5965 60.584C20.9165 61.1813 21.0765 61.8907 21.0765 62.712C21.0765 62.84 21.0712 62.9627 21.0605 63.08C21.0605 63.1867 21.0498 63.2987 21.0285 63.416H14.1805V62.168H19.8605L19.4445 62.664C19.4445 61.7893 19.2472 61.1227 18.8525 60.664C18.4578 60.2053 17.9085 59.976 17.2045 59.976C16.4472 59.976 15.8445 60.2373 15.3965 60.76C14.9592 61.272 14.7405 61.9867 14.7405 62.904C14.7405 63.832 14.9592 64.5573 15.3965 65.08C15.8445 65.6027 16.4632 65.864 17.2525 65.864C17.7325 65.864 18.1485 65.768 18.5005 65.576C18.8525 65.3733 19.1138 65.08 19.2845 64.696H20.8525C20.5858 65.464 20.1325 66.0667 19.4925 66.504C18.8632 66.9413 18.1058 67.16 17.2205 67.16ZM22.1386 67V58.84H23.7226V60.76H23.8026V67H22.1386ZM27.9306 67V61.752C27.9306 61.1867 27.7866 60.7653 27.4986 60.488C27.2213 60.2107 26.8053 60.072 26.2506 60.072C25.7706 60.072 25.344 60.1787 24.9706 60.392C24.608 60.6053 24.32 60.8987 24.1066 61.272C23.904 61.6453 23.8026 62.088 23.8026 62.6L23.5946 60.648C23.8613 60.04 24.272 59.56 24.8266 59.208C25.3813 58.856 26.0266 58.68 26.7626 58.68C27.6373 58.68 28.3253 58.9253 28.8266 59.416C29.328 59.9067 29.5786 60.5573 29.5786 61.368V67H27.9306ZM37.0898 67V65.128L37.2498 65.176C37.0791 65.784 36.7271 66.2693 36.1938 66.632C35.6604 66.984 35.0204 67.16 34.2738 67.16C33.5378 67.16 32.8924 66.984 32.3378 66.632C31.7938 66.28 31.3671 65.7893 31.0578 65.16C30.7591 64.5307 30.6098 63.7947 30.6098 62.952C30.6098 62.0987 30.7644 61.352 31.0738 60.712C31.3831 60.072 31.8151 59.576 32.3698 59.224C32.9244 58.872 33.5751 58.696 34.3218 58.696C35.1004 58.696 35.7404 58.8827 36.2418 59.256C36.7538 59.6187 37.0898 60.1307 37.2498 60.792L37.0258 60.824V55.48H38.6738V67H37.0898ZM34.6898 65.768C35.4258 65.768 36.0071 65.5173 36.4338 65.016C36.8604 64.504 37.0738 63.8 37.0738 62.904C37.0738 62.0293 36.8551 61.3413 36.4178 60.84C35.9911 60.328 35.4098 60.072 34.6738 60.072C33.9484 60.072 33.3724 60.328 32.9458 60.84C32.5298 61.3413 32.3218 62.0453 32.3218 62.952C32.3218 63.8373 32.5298 64.5307 32.9458 65.032C33.3724 65.5227 33.9538 65.768 34.6898 65.768ZM43.3182 67.16C42.2516 67.16 41.4036 66.9253 40.7742 66.456C40.1449 65.9867 39.7876 65.3253 39.7022 64.472H41.2382C41.3129 64.9413 41.5262 65.304 41.8782 65.56C42.2409 65.8053 42.7316 65.928 43.3502 65.928C43.8942 65.928 44.3102 65.832 44.5982 65.64C44.8862 65.448 45.0302 65.176 45.0302 64.824C45.0302 64.568 44.9449 64.3547 44.7742 64.184C44.6142 64.0027 44.2942 63.8533 43.8142 63.736L42.5022 63.432C41.6809 63.2293 41.0676 62.9307 40.6622 62.536C40.2676 62.1307 40.0702 61.6347 40.0702 61.048C40.0702 60.312 40.3422 59.736 40.8862 59.32C41.4409 58.8933 42.1982 58.68 43.1582 58.68C44.1076 58.68 44.8702 58.8933 45.4462 59.32C46.0329 59.7467 46.3636 60.344 46.4382 61.112H44.9022C44.8382 60.728 44.6516 60.4347 44.3422 60.232C44.0436 60.0187 43.6329 59.912 43.1102 59.912C42.6196 59.912 42.2409 60.0027 41.9742 60.184C41.7182 60.3547 41.5902 60.5947 41.5902 60.904C41.5902 61.16 41.6862 61.3733 41.8782 61.544C42.0809 61.7147 42.4116 61.8587 42.8702 61.976L44.2142 62.312C44.9929 62.504 45.5796 62.8187 45.9742 63.256C46.3689 63.6827 46.5662 64.2 46.5662 64.808C46.5662 65.544 46.2782 66.12 45.7022 66.536C45.1369 66.952 44.3422 67.16 43.3182 67.16ZM49.9849 67V58.84H51.6489V67H49.9849ZM49.9049 57.24V55.368H51.7449V57.24H49.9049ZM53.3449 67V58.84H54.9289V60.76H55.0089V67H53.3449ZM59.1369 67V61.752C59.1369 61.1867 58.9929 60.7653 58.7049 60.488C58.4275 60.2107 58.0115 60.072 57.4569 60.072C56.9769 60.072 56.5502 60.1787 56.1769 60.392C55.8142 60.6053 55.5262 60.8987 55.3129 61.272C55.1102 61.6453 55.0089 62.088 55.0089 62.6L54.8009 60.648C55.0675 60.04 55.4782 59.56 56.0329 59.208C56.5875 58.856 57.2329 58.68 57.9689 58.68C58.8435 58.68 59.5315 58.9253 60.0329 59.416C60.5342 59.9067 60.7849 60.5573 60.7849 61.368V67H59.1369ZM62.408 67V58.84H63.992V60.76H64.072V67H62.408ZM68.2 67V61.752C68.2 61.1867 68.056 60.7653 67.768 60.488C67.4907 60.2107 67.0747 60.072 66.52 60.072C66.04 60.072 65.6133 60.1787 65.24 60.392C64.8773 60.6053 64.5893 60.8987 64.376 61.272C64.1733 61.6453 64.072 62.088 64.072 62.6L63.864 60.648C64.1307 60.04 64.5413 59.56 65.096 59.208C65.6507 58.856 66.296 58.68 67.032 58.68C67.9067 58.68 68.5947 58.9253 69.096 59.416C69.5973 59.9067 69.848 60.5573 69.848 61.368V67H68.2ZM75.0231 67.16C74.1911 67.16 73.4605 66.9787 72.8311 66.616C72.2018 66.2427 71.7111 65.736 71.3591 65.096C71.0071 64.4453 70.8311 63.7093 70.8311 62.888C70.8311 62.056 71.0071 61.3253 71.3591 60.696C71.7218 60.0667 72.2125 59.576 72.8311 59.224C73.4605 58.8613 74.1911 58.68 75.0231 58.68C75.8658 58.68 76.6018 58.8613 77.2311 59.224C77.8605 59.576 78.3458 60.0667 78.6871 60.696C79.0391 61.3253 79.2151 62.056 79.2151 62.888C79.2151 63.7093 79.0391 64.4453 78.6871 65.096C78.3458 65.736 77.8605 66.2427 77.2311 66.616C76.6018 66.9787 75.8658 67.16 75.0231 67.16ZM75.0231 65.8C75.5245 65.8 75.9565 65.6773 76.3191 65.432C76.6925 65.1867 76.9858 64.8453 77.1991 64.408C77.4125 63.9707 77.5191 63.4587 77.5191 62.872C77.5191 61.9973 77.2845 61.3093 76.8151 60.808C76.3565 60.296 75.7591 60.04 75.0231 60.04C74.2978 60.04 73.7005 60.296 73.2311 60.808C72.7725 61.32 72.5431 62.008 72.5431 62.872C72.5431 63.4587 72.6445 63.9707 72.8471 64.408C73.0605 64.8453 73.3538 65.1867 73.7271 65.432C74.1111 65.6773 74.5431 65.8 75.0231 65.8ZM82.4015 67L79.0735 58.84H80.8495L83.5695 66.248H82.7855L85.4735 58.84H87.1855L83.8735 67H82.4015ZM92.6534 67C92.6 66.7973 92.5627 66.5733 92.5414 66.328C92.5307 66.0827 92.5254 65.784 92.5254 65.432H92.4454V61.544C92.4454 61.0213 92.312 60.632 92.0454 60.376C91.7894 60.1093 91.3787 59.976 90.8134 59.976C90.2694 59.976 89.832 60.0827 89.5014 60.296C89.1814 60.5093 88.9947 60.8133 88.9414 61.208H87.3574C87.432 60.44 87.7787 59.8267 88.3974 59.368C89.016 58.9093 89.8427 58.68 90.8774 58.68C91.944 58.68 92.744 58.9307 93.2774 59.432C93.8107 59.9227 94.0774 60.648 94.0774 61.608V65.432C94.0774 65.6773 94.0934 65.928 94.1254 66.184C94.1574 66.44 94.2054 66.712 94.2694 67H92.6534ZM89.8374 67.16C89.0054 67.16 88.344 66.9573 87.8534 66.552C87.3627 66.136 87.1174 65.576 87.1174 64.872C87.1174 64.1467 87.3734 63.576 87.8854 63.16C88.408 62.7333 89.1547 62.4453 90.1254 62.296L92.8134 61.864V63.032L90.3814 63.416C89.8374 63.5013 89.4267 63.6453 89.1494 63.848C88.8827 64.0507 88.7494 64.344 88.7494 64.728C88.7494 65.1013 88.872 65.384 89.1174 65.576C89.3734 65.7573 89.7414 65.848 90.2214 65.848C90.8614 65.848 91.3894 65.6933 91.8054 65.384C92.232 65.0747 92.4454 64.6853 92.4454 64.216L92.6534 65.4C92.4614 65.9653 92.12 66.4027 91.6294 66.712C91.1387 67.0107 90.5414 67.16 89.8374 67.16ZM98.8356 67.16C97.8863 67.16 97.1876 66.9413 96.7396 66.504C96.3023 66.056 96.0836 65.4 96.0836 64.536V56.968L97.7316 56.344V64.552C97.7316 64.9787 97.8436 65.2933 98.0676 65.496C98.2916 65.6987 98.6543 65.8 99.1556 65.8C99.3476 65.8 99.5183 65.784 99.6676 65.752C99.817 65.72 99.945 65.6827 100.052 65.64V66.984C99.9343 67.0373 99.769 67.08 99.5556 67.112C99.3423 67.144 99.1023 67.16 98.8356 67.16ZM94.4516 60.168V58.84H100.052V60.168H94.4516ZM100.958 67V58.84H102.622V67H100.958ZM100.878 57.24V55.368H102.718V57.24H100.878ZM107.839 67.16C107.007 67.16 106.276 66.9787 105.647 66.616C105.017 66.2427 104.527 65.736 104.175 65.096C103.823 64.4453 103.647 63.7093 103.647 62.888C103.647 62.056 103.823 61.3253 104.175 60.696C104.537 60.0667 105.028 59.576 105.647 59.224C106.276 58.8613 107.007 58.68 107.839 58.68C108.681 58.68 109.417 58.8613 110.047 59.224C110.676 59.576 111.161 60.0667 111.503 60.696C111.855 61.3253 112.031 62.056 112.031 62.888C112.031 63.7093 111.855 64.4453 111.503 65.096C111.161 65.736 110.676 66.2427 110.047 66.616C109.417 66.9787 108.681 67.16 107.839 67.16ZM107.839 65.8C108.34 65.8 108.772 65.6773 109.135 65.432C109.508 65.1867 109.801 64.8453 110.015 64.408C110.228 63.9707 110.335 63.4587 110.335 62.872C110.335 61.9973 110.1 61.3093 109.631 60.808C109.172 60.296 108.575 60.04 107.839 60.04C107.113 60.04 106.516 60.296 106.047 60.808C105.588 61.32 105.359 62.008 105.359 62.872C105.359 63.4587 105.46 63.9707 105.663 64.408C105.876 64.8453 106.169 65.1867 106.543 65.432C106.927 65.6773 107.359 65.8 107.839 65.8ZM113.1 67V58.84H114.684V60.76H114.764V67H113.1ZM118.892 67V61.752C118.892 61.1867 118.748 60.7653 118.46 60.488C118.183 60.2107 117.767 60.072 117.212 60.072C116.732 60.072 116.305 60.1787 115.932 60.392C115.569 60.6053 115.281 60.8987 115.068 61.272C114.865 61.6453 114.764 62.088 114.764 62.6L114.556 60.648C114.823 60.04 115.233 59.56 115.788 59.208C116.343 58.856 116.988 58.68 117.724 58.68C118.599 58.68 119.287 58.9253 119.788 59.416C120.289 59.9067 120.54 60.5573 120.54 61.368V67H118.892ZM129.735 67C129.682 66.7973 129.645 66.5733 129.623 66.328C129.613 66.0827 129.607 65.784 129.607 65.432H129.527V61.544C129.527 61.0213 129.394 60.632 129.127 60.376C128.871 60.1093 128.461 59.976 127.895 59.976C127.351 59.976 126.914 60.0827 126.583 60.296C126.263 60.5093 126.077 60.8133 126.023 61.208H124.439C124.514 60.44 124.861 59.8267 125.479 59.368C126.098 58.9093 126.925 58.68 127.959 58.68C129.026 58.68 129.826 58.9307 130.359 59.432C130.893 59.9227 131.159 60.648 131.159 61.608V65.432C131.159 65.6773 131.175 65.928 131.207 66.184C131.239 66.44 131.287 66.712 131.351 67H129.735ZM126.919 67.16C126.087 67.16 125.426 66.9573 124.935 66.552C124.445 66.136 124.199 65.576 124.199 64.872C124.199 64.1467 124.455 63.576 124.967 63.16C125.49 62.7333 126.237 62.4453 127.207 62.296L129.895 61.864V63.032L127.463 63.416C126.919 63.5013 126.509 63.6453 126.231 63.848C125.965 64.0507 125.831 64.344 125.831 64.728C125.831 65.1013 125.954 65.384 126.199 65.576C126.455 65.7573 126.823 65.848 127.303 65.848C127.943 65.848 128.471 65.6933 128.887 65.384C129.314 65.0747 129.527 64.6853 129.527 64.216L129.735 65.4C129.543 65.9653 129.202 66.4027 128.711 66.712C128.221 67.0107 127.623 67.16 126.919 67.16ZM132.774 67V58.84H134.358V60.76H134.438V67H132.774ZM138.566 67V61.752C138.566 61.1867 138.422 60.7653 138.134 60.488C137.856 60.2107 137.44 60.072 136.886 60.072C136.406 60.072 135.979 60.1787 135.606 60.392C135.243 60.6053 134.955 60.8987 134.742 61.272C134.539 61.6453 134.438 62.088 134.438 62.6L134.23 60.648C134.496 60.04 134.907 59.56 135.462 59.208C136.016 58.856 136.662 58.68 137.398 58.68C138.272 58.68 138.96 58.9253 139.462 59.416C139.963 59.9067 140.214 60.5573 140.214 61.368V67H138.566ZM147.725 67V65.128L147.885 65.176C147.714 65.784 147.362 66.2693 146.829 66.632C146.295 66.984 145.655 67.16 144.909 67.16C144.173 67.16 143.527 66.984 142.973 66.632C142.429 66.28 142.002 65.7893 141.693 65.16C141.394 64.5307 141.245 63.7947 141.245 62.952C141.245 62.0987 141.399 61.352 141.709 60.712C142.018 60.072 142.45 59.576 143.005 59.224C143.559 58.872 144.21 58.696 144.957 58.696C145.735 58.696 146.375 58.8827 146.877 59.256C147.389 59.6187 147.725 60.1307 147.885 60.792L147.661 60.824V55.48H149.309V67H147.725ZM145.325 65.768C146.061 65.768 146.642 65.5173 147.069 65.016C147.495 64.504 147.709 63.8 147.709 62.904C147.709 62.0293 147.49 61.3413 147.053 60.84C146.626 60.328 146.045 60.072 145.309 60.072C144.583 60.072 144.007 60.328 143.581 60.84C143.165 61.3413 142.957 62.0453 142.957 62.952C142.957 63.8373 143.165 64.5307 143.581 65.032C144.007 65.5227 144.589 65.768 145.325 65.768ZM156.917 67.16C156.139 67.16 155.445 66.9787 154.837 66.616C154.229 66.2427 153.749 65.736 153.397 65.096C153.056 64.456 152.885 63.7253 152.885 62.904C152.885 62.0827 153.056 61.3573 153.397 60.728C153.749 60.088 154.229 59.5867 154.837 59.224C155.445 58.8613 156.133 58.68 156.901 58.68C157.552 58.68 158.133 58.8027 158.645 59.048C159.157 59.2933 159.579 59.6347 159.909 60.072C160.24 60.5093 160.453 61.0267 160.549 61.624H158.981C158.875 61.144 158.64 60.76 158.277 60.472C157.925 60.184 157.477 60.04 156.933 60.04C156.464 60.04 156.053 60.1573 155.701 60.392C155.349 60.6267 155.077 60.9573 154.885 61.384C154.693 61.8107 154.597 62.3173 154.597 62.904C154.597 63.48 154.693 63.9867 154.885 64.424C155.077 64.8613 155.349 65.2027 155.701 65.448C156.053 65.6827 156.469 65.8 156.949 65.8C157.472 65.8 157.915 65.6613 158.277 65.384C158.651 65.096 158.891 64.712 158.997 64.232H160.565C160.459 64.8187 160.235 65.3307 159.893 65.768C159.563 66.2053 159.141 66.5467 158.629 66.792C158.117 67.0373 157.547 67.16 156.917 67.16ZM161.573 67V55.48H163.237V67H161.573ZM169.989 67C169.936 66.7973 169.898 66.5733 169.877 66.328C169.866 66.0827 169.861 65.784 169.861 65.432H169.781V61.544C169.781 61.0213 169.648 60.632 169.381 60.376C169.125 60.1093 168.714 59.976 168.149 59.976C167.605 59.976 167.168 60.0827 166.837 60.296C166.517 60.5093 166.33 60.8133 166.277 61.208H164.693C164.768 60.44 165.114 59.8267 165.733 59.368C166.352 58.9093 167.178 58.68 168.213 58.68C169.28 58.68 170.08 58.9307 170.613 59.432C171.146 59.9227 171.413 60.648 171.413 61.608V65.432C171.413 65.6773 171.429 65.928 171.461 66.184C171.493 66.44 171.541 66.712 171.605 67H169.989ZM167.173 67.16C166.341 67.16 165.68 66.9573 165.189 66.552C164.698 66.136 164.453 65.576 164.453 64.872C164.453 64.1467 164.709 63.576 165.221 63.16C165.744 62.7333 166.49 62.4453 167.461 62.296L170.149 61.864V63.032L167.717 63.416C167.173 63.5013 166.762 63.6453 166.485 63.848C166.218 64.0507 166.085 64.344 166.085 64.728C166.085 65.1013 166.208 65.384 166.453 65.576C166.709 65.7573 167.077 65.848 167.557 65.848C168.197 65.848 168.725 65.6933 169.141 65.384C169.568 65.0747 169.781 64.6853 169.781 64.216L169.989 65.4C169.797 65.9653 169.456 66.4027 168.965 66.712C168.474 67.0107 167.877 67.16 167.173 67.16ZM173.027 67V58.84H174.611V60.872H174.691V67H173.027ZM174.691 62.744L174.483 60.808C174.675 60.1147 175.006 59.5867 175.475 59.224C175.945 58.8613 176.505 58.68 177.155 58.68C177.401 58.68 177.571 58.7013 177.667 58.744V60.312C177.614 60.2907 177.539 60.28 177.443 60.28C177.347 60.2693 177.23 60.264 177.091 60.264C176.291 60.264 175.689 60.472 175.283 60.888C174.889 61.304 174.691 61.9227 174.691 62.744ZM178.372 67V58.84H180.036V67H178.372ZM178.292 57.24V55.368H180.132V57.24H178.292ZM185.141 67.16C184.192 67.16 183.493 66.9413 183.045 66.504C182.608 66.056 182.389 65.4 182.389 64.536V56.968L184.037 56.344V64.552C184.037 64.9787 184.149 65.2933 184.373 65.496C184.597 65.6987 184.96 65.8 185.461 65.8C185.653 65.8 185.824 65.784 185.973 65.752C186.123 65.72 186.251 65.6827 186.357 65.64V66.984C186.24 67.0373 186.075 67.08 185.861 67.112C185.648 67.144 185.408 67.16 185.141 67.16ZM180.757 60.168V58.84H186.357V60.168H180.757ZM188.012 70.28L189.98 65.784L190.316 65.256L192.796 58.84H194.524L189.724 70.28H188.012ZM189.9 67L186.412 58.84H188.22L191.18 66.184L189.9 67ZM201.237 67.16C200.288 67.16 199.589 66.9413 199.141 66.504C198.704 66.056 198.485 65.4 198.485 64.536V56.968L200.133 56.344V64.552C200.133 64.9787 200.245 65.2933 200.469 65.496C200.693 65.6987 201.056 65.8 201.557 65.8C201.749 65.8 201.92 65.784 202.069 65.752C202.218 65.72 202.346 65.6827 202.453 65.64V66.984C202.336 67.0373 202.17 67.08 201.957 67.112C201.744 67.144 201.504 67.16 201.237 67.16ZM196.853 60.168V58.84H202.453V60.168H196.853ZM206.724 67.16C205.892 67.16 205.161 66.9787 204.532 66.616C203.902 66.2427 203.412 65.736 203.06 65.096C202.708 64.4453 202.532 63.7093 202.532 62.888C202.532 62.056 202.708 61.3253 203.06 60.696C203.422 60.0667 203.913 59.576 204.532 59.224C205.161 58.8613 205.892 58.68 206.724 58.68C207.566 58.68 208.302 58.8613 208.932 59.224C209.561 59.576 210.046 60.0667 210.388 60.696C210.74 61.3253 210.916 62.056 210.916 62.888C210.916 63.7093 210.74 64.4453 210.388 65.096C210.046 65.736 209.561 66.2427 208.932 66.616C208.302 66.9787 207.566 67.16 206.724 67.16ZM206.724 65.8C207.225 65.8 207.657 65.6773 208.02 65.432C208.393 65.1867 208.686 64.8453 208.9 64.408C209.113 63.9707 209.22 63.4587 209.22 62.872C209.22 61.9973 208.985 61.3093 208.516 60.808C208.057 60.296 207.46 60.04 206.724 60.04C205.998 60.04 205.401 60.296 204.932 60.808C204.473 61.32 204.244 62.008 204.244 62.872C204.244 63.4587 204.345 63.9707 204.548 64.408C204.761 64.8453 205.054 65.1867 205.428 65.432C205.812 65.6773 206.244 65.8 206.724 65.8ZM4.56 85.16C3.78133 85.16 3.088 84.9787 2.48 84.616C1.872 84.2427 1.392 83.736 1.04 83.096C0.698667 82.456 0.528 81.7253 0.528 80.904C0.528 80.0827 0.698667 79.3573 1.04 78.728C1.392 78.088 1.872 77.5867 2.48 77.224C3.088 76.8613 3.776 76.68 4.544 76.68C5.19467 76.68 5.776 76.8027 6.288 77.048C6.8 77.2933 7.22133 77.6347 7.552 78.072C7.88267 78.5093 8.096 79.0267 8.192 79.624H6.624C6.51733 79.144 6.28267 78.76 5.92 78.472C5.568 78.184 5.12 78.04 4.576 78.04C4.10667 78.04 3.696 78.1573 3.344 78.392C2.992 78.6267 2.72 78.9573 2.528 79.384C2.336 79.8107 2.24 80.3173 2.24 80.904C2.24 81.48 2.336 81.9867 2.528 82.424C2.72 82.8613 2.992 83.2027 3.344 83.448C3.696 83.6827 4.112 83.8 4.592 83.8C5.11467 83.8 5.55733 83.6613 5.92 83.384C6.29333 83.096 6.53333 82.712 6.64 82.232H8.208C8.10133 82.8187 7.87733 83.3307 7.536 83.768C7.20533 84.2053 6.784 84.5467 6.272 84.792C5.76 85.0373 5.18933 85.16 4.56 85.16ZM9.2155 85V76.84H10.7995V78.872H10.8795V85H9.2155ZM10.8795 80.744L10.6715 78.808C10.8635 78.1147 11.1942 77.5867 11.6635 77.224C12.1328 76.8613 12.6928 76.68 13.3435 76.68C13.5888 76.68 13.7595 76.7013 13.8555 76.744V78.312C13.8022 78.2907 13.7275 78.28 13.6315 78.28C13.5355 78.2693 13.4182 78.264 13.2795 78.264C12.4795 78.264 11.8768 78.472 11.4715 78.888C11.0768 79.304 10.8795 79.9227 10.8795 80.744ZM17.9861 85.16C17.1648 85.16 16.4395 84.9787 15.8101 84.616C15.1915 84.2533 14.7061 83.752 14.3541 83.112C14.0021 82.472 13.8261 81.736 13.8261 80.904C13.8261 80.0613 13.9968 79.3253 14.3381 78.696C14.6901 78.056 15.1808 77.56 15.8101 77.208C16.4395 76.856 17.1595 76.68 17.9701 76.68C18.7595 76.68 19.4421 76.8507 20.0181 77.192C20.6048 77.5227 21.0528 77.9867 21.3621 78.584C21.6821 79.1813 21.8421 79.8907 21.8421 80.712C21.8421 80.84 21.8368 80.9627 21.8261 81.08C21.8261 81.1867 21.8155 81.2987 21.7941 81.416H14.9461V80.168H20.6261L20.2101 80.664C20.2101 79.7893 20.0128 79.1227 19.6181 78.664C19.2235 78.2053 18.6741 77.976 17.9701 77.976C17.2128 77.976 16.6101 78.2373 16.1621 78.76C15.7248 79.272 15.5061 79.9867 15.5061 80.904C15.5061 81.832 15.7248 82.5573 16.1621 83.08C16.6101 83.6027 17.2288 83.864 18.0181 83.864C18.4981 83.864 18.9141 83.768 19.2661 83.576C19.6181 83.3733 19.8795 83.08 20.0501 82.696H21.6181C21.3515 83.464 20.8981 84.0667 20.2581 84.504C19.6288 84.9413 18.8715 85.16 17.9861 85.16ZM27.8665 85C27.8132 84.7973 27.7758 84.5733 27.7545 84.328C27.7438 84.0827 27.7385 83.784 27.7385 83.432H27.6585V79.544C27.6585 79.0213 27.5252 78.632 27.2585 78.376C27.0025 78.1093 26.5918 77.976 26.0265 77.976C25.4825 77.976 25.0452 78.0827 24.7145 78.296C24.3945 78.5093 24.2078 78.8133 24.1545 79.208H22.5705C22.6452 78.44 22.9918 77.8267 23.6105 77.368C24.2292 76.9093 25.0558 76.68 26.0905 76.68C27.1572 76.68 27.9572 76.9307 28.4905 77.432C29.0238 77.9227 29.2905 78.648 29.2905 79.608V83.432C29.2905 83.6773 29.3065 83.928 29.3385 84.184C29.3705 84.44 29.4185 84.712 29.4825 85H27.8665ZM25.0505 85.16C24.2185 85.16 23.5572 84.9573 23.0665 84.552C22.5758 84.136 22.3305 83.576 22.3305 82.872C22.3305 82.1467 22.5865 81.576 23.0985 81.16C23.6212 80.7333 24.3678 80.4453 25.3385 80.296L28.0265 79.864V81.032L25.5945 81.416C25.0505 81.5013 24.6398 81.6453 24.3625 81.848C24.0958 82.0507 23.9625 82.344 23.9625 82.728C23.9625 83.1013 24.0852 83.384 24.3305 83.576C24.5865 83.7573 24.9545 83.848 25.4345 83.848C26.0745 83.848 26.6025 83.6933 27.0185 83.384C27.4452 83.0747 27.6585 82.6853 27.6585 82.216L27.8665 83.4C27.6745 83.9653 27.3332 84.4027 26.8425 84.712C26.3518 85.0107 25.7545 85.16 25.0505 85.16ZM34.0488 85.16C33.0994 85.16 32.4008 84.9413 31.9528 84.504C31.5154 84.056 31.2968 83.4 31.2968 82.536V74.968L32.9448 74.344V82.552C32.9448 82.9787 33.0568 83.2933 33.2808 83.496C33.5048 83.6987 33.8674 83.8 34.3688 83.8C34.5608 83.8 34.7314 83.784 34.8808 83.752C35.0301 83.72 35.1581 83.6827 35.2648 83.64V84.984C35.1474 85.0373 34.9821 85.08 34.7688 85.112C34.5554 85.144 34.3154 85.16 34.0488 85.16ZM29.6648 78.168V76.84H35.2648V78.168H29.6648ZM39.5192 85.16C38.6979 85.16 37.9726 84.9787 37.3432 84.616C36.7246 84.2533 36.2392 83.752 35.8872 83.112C35.5352 82.472 35.3592 81.736 35.3592 80.904C35.3592 80.0613 35.5299 79.3253 35.8712 78.696C36.2232 78.056 36.7139 77.56 37.3432 77.208C37.9726 76.856 38.6926 76.68 39.5032 76.68C40.2926 76.68 40.9752 76.8507 41.5512 77.192C42.1379 77.5227 42.5859 77.9867 42.8952 78.584C43.2152 79.1813 43.3752 79.8907 43.3752 80.712C43.3752 80.84 43.3699 80.9627 43.3593 81.08C43.3593 81.1867 43.3486 81.2987 43.3272 81.416H36.4792V80.168H42.1592L41.7432 80.664C41.7432 79.7893 41.5459 79.1227 41.1512 78.664C40.7566 78.2053 40.2072 77.976 39.5032 77.976C38.7459 77.976 38.1432 78.2373 37.6952 78.76C37.2579 79.272 37.0392 79.9867 37.0392 80.904C37.0392 81.832 37.2579 82.5573 37.6952 83.08C38.1432 83.6027 38.7619 83.864 39.5512 83.864C40.0312 83.864 40.4472 83.768 40.7992 83.576C41.1512 83.3733 41.4126 83.08 41.5832 82.696H43.1512C42.8846 83.464 42.4312 84.0667 41.7912 84.504C41.1619 84.9413 40.4046 85.16 39.5192 85.16ZM46.9536 85V76.84H48.6176V85H46.9536ZM46.8736 75.24V73.368H48.7136V75.24H46.8736ZM50.3136 85V76.84H51.8976V78.76H51.9776V85H50.3136ZM55.8176 85V79.672C55.8176 79.1173 55.6896 78.712 55.4336 78.456C55.1776 78.2 54.8096 78.072 54.3296 78.072C53.8816 78.072 53.4763 78.1787 53.1136 78.392C52.7616 78.5947 52.4843 78.8827 52.2816 79.256C52.079 79.6187 51.9776 80.0507 51.9776 80.552L51.7696 78.648C52.0363 78.04 52.4363 77.56 52.9696 77.208C53.5136 76.856 54.1216 76.68 54.7936 76.68C55.6043 76.68 56.2496 76.9147 56.7296 77.384C57.2203 77.8533 57.4656 78.472 57.4656 79.24V85H55.8176ZM61.3216 85V79.672C61.3216 79.1173 61.1883 78.712 60.9216 78.456C60.6656 78.2 60.2976 78.072 59.8176 78.072C59.3803 78.072 58.9803 78.1787 58.6176 78.392C58.2656 78.5947 57.983 78.8827 57.7696 79.256C57.567 79.6187 57.4656 80.0507 57.4656 80.552L57.1296 78.648C57.407 78.04 57.823 77.56 58.3776 77.208C58.943 76.856 59.5723 76.68 60.2656 76.68C61.087 76.68 61.743 76.92 62.2336 77.4C62.7243 77.8693 62.9696 78.4987 62.9696 79.288V85H61.3216ZM68.9163 85.144C68.1483 85.144 67.5083 84.9627 66.9963 84.6C66.4949 84.2267 66.1643 83.7093 66.0043 83.048L66.2283 83.016V88.28H64.5643V76.84H66.1483V78.712L65.9883 78.664C66.1589 78.0453 66.5216 77.56 67.0763 77.208C67.6309 76.856 68.2816 76.68 69.0283 76.68C69.7643 76.68 70.3989 76.856 70.9323 77.208C71.4763 77.56 71.8923 78.0507 72.1803 78.68C72.4789 79.3093 72.6283 80.0453 72.6283 80.888C72.6283 81.7413 72.4736 82.488 72.1643 83.128C71.8549 83.768 71.4229 84.264 70.8683 84.616C70.3136 84.968 69.6629 85.144 68.9163 85.144ZM68.5643 83.768C69.2896 83.768 69.8656 83.512 70.2923 83C70.7189 82.488 70.9323 81.784 70.9323 80.888C70.9323 80.0027 70.7189 79.3147 70.2923 78.824C69.8656 78.3227 69.2843 78.072 68.5483 78.072C67.8229 78.072 67.2416 78.328 66.8043 78.84C66.3776 79.3413 66.1643 80.04 66.1643 80.936C66.1643 81.8107 66.3776 82.504 66.8043 83.016C67.2416 83.5173 67.8283 83.768 68.5643 83.768ZM78.8084 85C78.755 84.7973 78.7177 84.5733 78.6964 84.328C78.6857 84.0827 78.6804 83.784 78.6804 83.432H78.6004V79.544C78.6004 79.0213 78.467 78.632 78.2004 78.376C77.9444 78.1093 77.5337 77.976 76.9684 77.976C76.4244 77.976 75.987 78.0827 75.6564 78.296C75.3364 78.5093 75.1497 78.8133 75.0964 79.208H73.5124C73.587 78.44 73.9337 77.8267 74.5524 77.368C75.171 76.9093 75.9977 76.68 77.0324 76.68C78.099 76.68 78.899 76.9307 79.4324 77.432C79.9657 77.9227 80.2324 78.648 80.2324 79.608V83.432C80.2324 83.6773 80.2484 83.928 80.2804 84.184C80.3124 84.44 80.3604 84.712 80.4244 85H78.8084ZM75.9924 85.16C75.1604 85.16 74.499 84.9573 74.0084 84.552C73.5177 84.136 73.2724 83.576 73.2724 82.872C73.2724 82.1467 73.5284 81.576 74.0404 81.16C74.563 80.7333 75.3097 80.4453 76.2804 80.296L78.9684 79.864V81.032L76.5364 81.416C75.9924 81.5013 75.5817 81.6453 75.3044 81.848C75.0377 82.0507 74.9044 82.344 74.9044 82.728C74.9044 83.1013 75.027 83.384 75.2724 83.576C75.5284 83.7573 75.8964 83.848 76.3764 83.848C77.0164 83.848 77.5444 83.6933 77.9604 83.384C78.387 83.0747 78.6004 82.6853 78.6004 82.216L78.8084 83.4C78.6164 83.9653 78.275 84.4027 77.7844 84.712C77.2937 85.0107 76.6964 85.16 75.9924 85.16ZM85.1762 85.16C84.3976 85.16 83.7042 84.9787 83.0962 84.616C82.4882 84.2427 82.0082 83.736 81.6562 83.096C81.3149 82.456 81.1442 81.7253 81.1442 80.904C81.1442 80.0827 81.3149 79.3573 81.6562 78.728C82.0082 78.088 82.4882 77.5867 83.0962 77.224C83.7042 76.8613 84.3922 76.68 85.1602 76.68C85.8109 76.68 86.3922 76.8027 86.9042 77.048C87.4162 77.2933 87.8376 77.6347 88.1682 78.072C88.4989 78.5093 88.7122 79.0267 88.8082 79.624H87.2402C87.1336 79.144 86.8989 78.76 86.5362 78.472C86.1842 78.184 85.7362 78.04 85.1922 78.04C84.7229 78.04 84.3122 78.1573 83.9602 78.392C83.6082 78.6267 83.3362 78.9573 83.1442 79.384C82.9522 79.8107 82.8562 80.3173 82.8562 80.904C82.8562 81.48 82.9522 81.9867 83.1442 82.424C83.3362 82.8613 83.6082 83.2027 83.9602 83.448C84.3122 83.6827 84.7282 83.8 85.2082 83.8C85.7309 83.8 86.1736 83.6613 86.5362 83.384C86.9096 83.096 87.1496 82.712 87.2562 82.232H88.8242C88.7176 82.8187 88.4936 83.3307 88.1522 83.768C87.8216 84.2053 87.4002 84.5467 86.8882 84.792C86.3762 85.0373 85.8056 85.16 85.1762 85.16ZM93.2413 85.16C92.2919 85.16 91.5932 84.9413 91.1452 84.504C90.7079 84.056 90.4892 83.4 90.4892 82.536V74.968L92.1372 74.344V82.552C92.1372 82.9787 92.2492 83.2933 92.4732 83.496C92.6972 83.6987 93.0599 83.8 93.5612 83.8C93.7532 83.8 93.9239 83.784 94.0732 83.752C94.2226 83.72 94.3506 83.6827 94.4573 83.64V84.984C94.3399 85.0373 94.1746 85.08 93.9612 85.112C93.7479 85.144 93.5079 85.16 93.2413 85.16ZM88.8572 78.168V76.84H94.4573V78.168H88.8572ZM96.254 85V75.896C96.254 75.064 96.4887 74.4293 96.958 73.992C97.4273 73.544 98.1313 73.32 99.07 73.32C99.2833 73.32 99.4593 73.3307 99.598 73.352C99.7367 73.3733 99.8593 73.4053 99.966 73.448V74.728C99.8913 74.7067 99.79 74.6853 99.662 74.664C99.5447 74.6427 99.4113 74.632 99.262 74.632C98.7927 74.632 98.4513 74.7493 98.238 74.984C98.0247 75.208 97.918 75.528 97.918 75.944V85H96.254ZM94.686 78.168V76.84H99.79V78.168H94.686ZM103.239 85.16C102.695 85.16 102.215 85.048 101.799 84.824C101.383 84.5893 101.058 84.2693 100.823 83.864C100.599 83.4587 100.487 82.9947 100.487 82.472V76.84H102.151V82.088C102.151 82.6533 102.29 83.0747 102.567 83.352C102.844 83.6293 103.239 83.768 103.751 83.768C104.21 83.768 104.615 83.6613 104.967 83.448C105.33 83.2347 105.612 82.9413 105.815 82.568C106.028 82.184 106.135 81.7413 106.135 81.24L106.343 83.192C106.076 83.7893 105.666 84.2693 105.111 84.632C104.567 84.984 103.943 85.16 103.239 85.16ZM106.199 85V83.08H106.135V76.84H107.783V85H106.199ZM109.474 85V73.48H111.138V85H109.474ZM118.295 85.16C117.228 85.16 116.38 84.9253 115.751 84.456C115.121 83.9867 114.764 83.3253 114.679 82.472H116.215C116.289 82.9413 116.503 83.304 116.855 83.56C117.217 83.8053 117.708 83.928 118.327 83.928C118.871 83.928 119.287 83.832 119.575 83.64C119.863 83.448 120.007 83.176 120.007 82.824C120.007 82.568 119.921 82.3547 119.751 82.184C119.591 82.0027 119.271 81.8533 118.791 81.736L117.479 81.432C116.657 81.2293 116.044 80.9307 115.639 80.536C115.244 80.1307 115.047 79.6347 115.047 79.048C115.047 78.312 115.319 77.736 115.863 77.32C116.417 76.8933 117.175 76.68 118.135 76.68C119.084 76.68 119.847 76.8933 120.423 77.32C121.009 77.7467 121.34 78.344 121.415 79.112H119.879C119.815 78.728 119.628 78.4347 119.319 78.232C119.02 78.0187 118.609 77.912 118.087 77.912C117.596 77.912 117.217 78.0027 116.951 78.184C116.695 78.3547 116.567 78.5947 116.567 78.904C116.567 79.16 116.663 79.3733 116.855 79.544C117.057 79.7147 117.388 79.8587 117.847 79.976L119.191 80.312C119.969 80.504 120.556 80.8187 120.951 81.256C121.345 81.6827 121.543 82.2 121.543 82.808C121.543 83.544 121.255 84.12 120.679 84.536C120.113 84.952 119.319 85.16 118.295 85.16ZM126.278 85.16C125.446 85.16 124.715 84.9787 124.086 84.616C123.457 84.2427 122.966 83.736 122.614 83.096C122.262 82.4453 122.086 81.7093 122.086 80.888C122.086 80.056 122.262 79.3253 122.614 78.696C122.977 78.0667 123.467 77.576 124.086 77.224C124.715 76.8613 125.446 76.68 126.278 76.68C127.121 76.68 127.857 76.8613 128.486 77.224C129.115 77.576 129.601 78.0667 129.942 78.696C130.294 79.3253 130.47 80.056 130.47 80.888C130.47 81.7093 130.294 82.4453 129.942 83.096C129.601 83.736 129.115 84.2427 128.486 84.616C127.857 84.9787 127.121 85.16 126.278 85.16ZM126.278 83.8C126.779 83.8 127.211 83.6773 127.574 83.432C127.947 83.1867 128.241 82.8453 128.454 82.408C128.667 81.9707 128.774 81.4587 128.774 80.872C128.774 79.9973 128.539 79.3093 128.07 78.808C127.611 78.296 127.014 78.04 126.278 78.04C125.553 78.04 124.955 78.296 124.486 78.808C124.027 79.32 123.798 80.008 123.798 80.872C123.798 81.4587 123.899 81.9707 124.102 82.408C124.315 82.8453 124.609 83.1867 124.982 83.432C125.366 83.6773 125.798 83.8 126.278 83.8ZM131.539 85V73.48H133.203V85H131.539ZM137.555 85.16C137.011 85.16 136.531 85.048 136.115 84.824C135.699 84.5893 135.374 84.2693 135.139 83.864C134.915 83.4587 134.803 82.9947 134.803 82.472V76.84H136.467V82.088C136.467 82.6533 136.606 83.0747 136.883 83.352C137.161 83.6293 137.555 83.768 138.067 83.768C138.526 83.768 138.931 83.6613 139.283 83.448C139.646 83.2347 139.929 82.9413 140.131 82.568C140.345 82.184 140.451 81.7413 140.451 81.24L140.659 83.192C140.393 83.7893 139.982 84.2693 139.427 84.632C138.883 84.984 138.259 85.16 137.555 85.16ZM140.515 85V83.08H140.451V76.84H142.099V85H140.515ZM147.184 85.16C146.235 85.16 145.536 84.9413 145.088 84.504C144.651 84.056 144.432 83.4 144.432 82.536V74.968L146.08 74.344V82.552C146.08 82.9787 146.192 83.2933 146.416 83.496C146.64 83.6987 147.003 83.8 147.504 83.8C147.696 83.8 147.867 83.784 148.016 83.752C148.166 83.72 148.294 83.6827 148.4 83.64V84.984C148.283 85.0373 148.118 85.08 147.904 85.112C147.691 85.144 147.451 85.16 147.184 85.16ZM142.8 78.168V76.84H148.4V78.168H142.8ZM149.307 85V76.84H150.971V85H149.307ZM149.227 75.24V73.368H151.067V75.24H149.227ZM156.187 85.16C155.355 85.16 154.625 84.9787 153.995 84.616C153.366 84.2427 152.875 83.736 152.523 83.096C152.171 82.4453 151.995 81.7093 151.995 80.888C151.995 80.056 152.171 79.3253 152.523 78.696C152.886 78.0667 153.377 77.576 153.995 77.224C154.625 76.8613 155.355 76.68 156.187 76.68C157.03 76.68 157.766 76.8613 158.395 77.224C159.025 77.576 159.51 78.0667 159.851 78.696C160.203 79.3253 160.379 80.056 160.379 80.888C160.379 81.7093 160.203 82.4453 159.851 83.096C159.51 83.736 159.025 84.2427 158.395 84.616C157.766 84.9787 157.03 85.16 156.187 85.16ZM156.187 83.8C156.689 83.8 157.121 83.6773 157.483 83.432C157.857 83.1867 158.15 82.8453 158.363 82.408C158.577 81.9707 158.683 81.4587 158.683 80.872C158.683 79.9973 158.449 79.3093 157.979 78.808C157.521 78.296 156.923 78.04 156.187 78.04C155.462 78.04 154.865 78.296 154.395 78.808C153.937 79.32 153.707 80.008 153.707 80.872C153.707 81.4587 153.809 81.9707 154.011 82.408C154.225 82.8453 154.518 83.1867 154.891 83.432C155.275 83.6773 155.707 83.8 156.187 83.8ZM161.449 85V76.84H163.033V78.76H163.113V85H161.449ZM167.241 85V79.752C167.241 79.1867 167.097 78.7653 166.809 78.488C166.531 78.2107 166.115 78.072 165.561 78.072C165.081 78.072 164.654 78.1787 164.281 78.392C163.918 78.6053 163.63 78.8987 163.417 79.272C163.214 79.6453 163.113 80.088 163.113 80.6L162.905 78.648C163.171 78.04 163.582 77.56 164.137 77.208C164.691 76.856 165.337 76.68 166.073 76.68C166.947 76.68 167.635 76.9253 168.137 77.416C168.638 77.9067 168.889 78.5573 168.889 79.368V85H167.241ZM173.424 85.16C172.358 85.16 171.51 84.9253 170.881 84.456C170.251 83.9867 169.894 83.3253 169.809 82.472H171.345C171.419 82.9413 171.633 83.304 171.985 83.56C172.347 83.8053 172.838 83.928 173.457 83.928C174.001 83.928 174.417 83.832 174.705 83.64C174.993 83.448 175.137 83.176 175.137 82.824C175.137 82.568 175.051 82.3547 174.881 82.184C174.721 82.0027 174.401 81.8533 173.921 81.736L172.609 81.432C171.787 81.2293 171.174 80.9307 170.769 80.536C170.374 80.1307 170.177 79.6347 170.177 79.048C170.177 78.312 170.449 77.736 170.993 77.32C171.547 76.8933 172.305 76.68 173.265 76.68C174.214 76.68 174.977 76.8933 175.553 77.32C176.139 77.7467 176.47 78.344 176.545 79.112H175.009C174.945 78.728 174.758 78.4347 174.449 78.232C174.15 78.0187 173.739 77.912 173.217 77.912C172.726 77.912 172.347 78.0027 172.081 78.184C171.825 78.3547 171.697 78.5947 171.697 78.904C171.697 79.16 171.793 79.3733 171.985 79.544C172.187 79.7147 172.518 79.8587 172.977 79.976L174.321 80.312C175.099 80.504 175.686 80.8187 176.081 81.256C176.475 81.6827 176.673 82.2 176.673 82.808C176.673 83.544 176.385 84.12 175.809 84.536C175.243 84.952 174.449 85.16 173.424 85.16Z" fill="#F1F1F1"/>
</svg>
