<svg width="99" height="24" viewBox="0 0 99 24" fill="none" xmlns="http://www.w3.org/2000/svg">
<path d="M5.36 18.144C3.97333 18.144 2.864 17.8133 2.032 17.152C1.2 16.4907 0.714667 15.5467 0.576 14.32H2.224C2.32 15.12 2.64 15.728 3.184 16.144C3.728 16.56 4.464 16.768 5.392 16.768C6.17067 16.768 6.75733 16.624 7.152 16.336C7.55733 16.048 7.76 15.6373 7.76 15.104C7.76 14.624 7.62667 14.2453 7.36 13.968C7.09333 13.68 6.672 13.4453 6.096 13.264L4.096 12.624C3.072 12.2933 2.32 11.8773 1.84 11.376C1.36 10.8747 1.12 10.24 1.12 9.472C1.12 8.82133 1.28 8.26133 1.6 7.792C1.93067 7.32267 2.38933 6.96 2.976 6.704C3.57333 6.43733 4.26667 6.304 5.056 6.304C6.272 6.304 7.24267 6.61333 7.968 7.232C8.704 7.84 9.12533 8.688 9.232 9.776H7.584C7.456 9.05067 7.17867 8.52267 6.752 8.192C6.32533 7.85067 5.73867 7.68 4.992 7.68C4.288 7.68 3.73867 7.81867 3.344 8.096C2.94933 8.37333 2.752 8.76267 2.752 9.264C2.752 9.66933 2.88 10.0107 3.136 10.288C3.40267 10.5547 3.84 10.784 4.448 10.976L6.544 11.648C7.51467 11.9573 8.22933 12.3787 8.688 12.912C9.15733 13.4453 9.392 14.1173 9.392 14.928C9.392 15.952 9.04 16.7467 8.336 17.312C7.632 17.8667 6.64 18.144 5.36 18.144ZM15.9048 18.16C15.1048 18.16 14.3634 18.016 13.6808 17.728C12.9981 17.4293 12.4061 17.0187 11.9048 16.496C11.4141 15.9627 11.0301 15.3333 10.7528 14.608C10.4754 13.8827 10.3368 13.088 10.3368 12.224C10.3368 11.36 10.4701 10.5707 10.7368 9.856C11.0141 9.13067 11.3981 8.50667 11.8888 7.984C12.3901 7.45067 12.9821 7.04 13.6648 6.752C14.3474 6.464 15.0888 6.32 15.8888 6.32C16.7848 6.32 17.5901 6.50133 18.3048 6.864C19.0194 7.216 19.6008 7.71733 20.0488 8.368C20.5074 9.01867 20.7901 9.776 20.8968 10.64H19.2328C19.0941 9.73333 18.7261 9.02933 18.1288 8.528C17.5421 8.016 16.8008 7.76 15.9048 7.76C15.1474 7.76 14.4754 7.94667 13.8888 8.32C13.3128 8.68267 12.8648 9.2 12.5448 9.872C12.2248 10.5333 12.0648 11.3173 12.0648 12.224C12.0648 13.12 12.2248 13.9093 12.5448 14.592C12.8754 15.264 13.3288 15.7867 13.9048 16.16C14.4808 16.5333 15.1474 16.72 15.9048 16.72C16.8008 16.72 17.5474 16.4693 18.1448 15.968C18.7528 15.456 19.1208 14.7467 19.2488 13.84H20.9288C20.8114 14.7147 20.5234 15.4773 20.0648 16.128C19.6061 16.768 19.0194 17.2693 18.3048 17.632C17.6008 17.984 16.8008 18.16 15.9048 18.16ZM22.419 18V6.48H24.115V18H22.419ZM30.051 18V6.48H31.747V18H30.051ZM23.251 11.296H30.803V12.704H23.251V11.296ZM33.7861 18V6.48H38.3301C39.1621 6.48 39.8715 6.61867 40.4581 6.896C41.0448 7.16267 41.4981 7.54133 41.8181 8.032C42.1381 8.512 42.2981 9.08267 42.2981 9.744C42.2981 10.4053 42.1381 10.9813 41.8181 11.472C41.4981 11.9627 41.0448 12.3467 40.4581 12.624C39.8715 12.9013 39.1621 13.04 38.3301 13.04H35.0661V11.664H38.2821C39.0501 11.664 39.6315 11.4987 40.0261 11.168C40.4315 10.8267 40.6341 10.3573 40.6341 9.76C40.6341 9.16267 40.4368 8.69867 40.0421 8.368C39.6475 8.03733 39.0608 7.872 38.2821 7.872H35.4821V18H33.7861ZM40.4421 18L34.8261 12.192H36.8901L42.8741 18H40.4421ZM44.0446 18V6.48H45.7406V18H44.0446ZM47.7871 18V6.48H49.4831V18H47.7871ZM48.6191 13.216V11.824H54.9551V13.216H48.6191ZM48.6191 7.872V6.48H55.3871V7.872H48.6191ZM60.2456 18V7.872H56.3576V6.48H65.8296V7.872H61.9416V18H60.2456Z" fill="#F1F1F1"/>
<g clip-path="url(#clip0_1_288)">
<path d="M79.0433 18.1082L89.9667 7.18485L81.4814 7.18484L81.4814 4.51858H94.5186L94.5186 17.5557H91.8523L91.8523 9.07046L80.9289 19.9938L79.0433 18.1082Z" fill="white"/>
</g>
<defs>
<clipPath id="clip0_1_288">
<rect width="24" height="24" fill="white" transform="translate(75)"/>
</clipPath>
</defs>
</svg>
